<svg width="30" height="30" viewBox="0 0 30 30" fill="none" xmlns="http://www.w3.org/2000/svg">
<path d="M22.9297 11.4375C22.9297 11.6328 22.9297 11.7891 22.9297 11.9844C22.9297 17.4141 18.8281 23.625 11.2891 23.625C8.94531 23.625 6.79688 22.9609 5 21.7891C5.3125 21.8281 5.625 21.8672 5.97656 21.8672C7.89062 21.8672 9.64844 21.2031 11.0547 20.1094C9.25781 20.0703 7.73438 18.8984 7.22656 17.2578C7.5 17.2969 7.73438 17.3359 8.00781 17.3359C8.35938 17.3359 8.75 17.2578 9.0625 17.1797C7.1875 16.7891 5.78125 15.1484 5.78125 13.1562V13.1172C6.32812 13.4297 6.99219 13.5859 7.65625 13.625C6.52344 12.8828 5.82031 11.6328 5.82031 10.2266C5.82031 9.44531 6.01562 8.74219 6.36719 8.15625C8.39844 10.6172 11.4453 12.2578 14.8438 12.4531C14.7656 12.1406 14.7266 11.8281 14.7266 11.5156C14.7266 9.25 16.5625 7.41406 18.8281 7.41406C20 7.41406 21.0547 7.88281 21.8359 8.70312C22.7344 8.50781 23.6328 8.15625 24.4141 7.6875C24.1016 8.66406 23.4766 9.44531 22.6172 9.95312C23.4375 9.875 24.2578 9.64062 24.9609 9.32812C24.4141 10.1484 23.7109 10.8516 22.9297 11.4375Z" fill="white"/>
</svg>
