<svg width="20" height="21" viewBox="0 0 20 21" fill="none" xmlns="http://www.w3.org/2000/svg">
<path d="M18.125 2.375H10.625V18.625H18.125V2.375ZM10.625 0.5H18.125H20V2.375V18.625V20.5H18.125H10.625H8.75V18.625V2.375V0.5H10.625ZM7.5 5.5V7.375H1.875V18.625H7.5V20.5H0.9375H0V19.5625V6.4375V5.5H0.9375H7.5ZM6.25 13V15.5H3.75V13H6.25ZM13.125 14.25V11.75H15.625V14.25H13.125ZM6.25 9.25V11.75H3.75V9.25H6.25ZM13.125 4.25H15.625V6.75H13.125V4.25ZM15.625 10.5H13.125V8H15.625V10.5Z" fill="#F6C557"/>
</svg>
