<svg width="44" height="44" viewBox="0 0 44 44" fill="none" xmlns="http://www.w3.org/2000/svg">
<path d="M18.3327 14.6666C18.3327 18.1236 18.3327 19.852 17.2587 20.926C16.1848 21.9999 14.4563 21.9999 10.9993 21.9999C7.54238 21.9999 5.81389 21.9999 4.73996 20.926C3.66602 19.852 3.66602 18.1236 3.66602 14.6666C3.66602 11.2096 3.66602 9.48113 4.73996 8.4072C5.81389 7.33325 7.54238 7.33325 10.9993 7.33325C14.4563 7.33325 16.1848 7.33325 17.2587 8.4072C18.3327 9.48113 18.3327 11.2096 18.3327 14.6666Z" stroke="#141B34" stroke-width="2.75"/>
<path d="M18.334 12.8333V21.0504C18.334 28.3335 13.7218 34.51 7.33398 36.6666" stroke="#141B34" stroke-width="2.75" stroke-linecap="round"/>
<path d="M40.3327 14.6666C40.3327 18.1236 40.3327 19.852 39.2587 20.926C38.1847 21.9999 36.4563 21.9999 32.9993 21.9999C29.5424 21.9999 27.8139 21.9999 26.74 20.926C25.666 19.852 25.666 18.1236 25.666 14.6666C25.666 11.2096 25.666 9.48113 26.74 8.4072C27.8139 7.33325 29.5424 7.33325 32.9993 7.33325C36.4563 7.33325 38.1847 7.33325 39.2587 8.4072C40.3327 9.48113 40.3327 11.2096 40.3327 14.6666Z" stroke="#141B34" stroke-width="2.75"/>
<path d="M40.334 12.8333V21.0504C40.334 28.3335 35.7219 34.51 29.334 36.6666" stroke="#141B34" stroke-width="2.75" stroke-linecap="round"/>
</svg>
