<svg width="30" height="50" viewBox="0 0 30 50" fill="none" xmlns="http://www.w3.org/2000/svg">
<path d="M27.5 20C27.5 13.125 21.875 7.5 15 7.5C8.04688 7.5 2.5 13.125 2.5 20C2.5 21.6406 3.20312 23.8281 4.53125 26.4844C5.85938 29.0625 7.65625 31.7969 9.45312 34.375C11.3281 36.875 13.125 39.1406 14.5312 40.7812C14.6875 40.9375 14.8438 41.0938 15 41.25C15.0781 41.0938 15.2344 40.9375 15.3906 40.7812C16.7969 39.1406 18.5938 36.875 20.4688 34.375C22.2656 31.7969 24.0625 29.0625 25.3906 26.4844C26.7188 23.8281 27.5 21.6406 27.5 20ZM30 20C30 26.9531 20.5469 38.5938 16.6406 43.125C15.625 44.375 15 45 15 45C15 45 14.2969 44.375 13.2812 43.125C9.375 38.5938 0 26.9531 0 20C0 11.7188 6.71875 5 15 5C23.2812 5 30 11.7188 30 20ZM11.25 20C11.25 21.4062 11.9531 22.5781 13.125 23.2812C14.2188 23.9844 15.7031 23.9844 16.875 23.2812C17.9688 22.5781 18.75 21.4062 18.75 20C18.75 18.6719 17.9688 17.5 16.875 16.7969C15.7031 16.0938 14.2188 16.0938 13.125 16.7969C11.9531 17.5 11.25 18.6719 11.25 20ZM15 26.25C12.7344 26.25 10.7031 25.0781 9.53125 23.125C8.4375 21.25 8.4375 18.8281 9.53125 16.875C10.7031 15 12.7344 13.75 15 13.75C17.1875 13.75 19.2188 15 20.3906 16.875C21.4844 18.8281 21.4844 21.25 20.3906 23.125C19.2188 25.0781 17.1875 26.25 15 26.25Z" fill="#F6C557"/>
</svg>
