<svg width="30" height="30" viewBox="0 0 30 30" fill="none" xmlns="http://www.w3.org/2000/svg">
<path d="M10.1562 23H6.52344V11.3203H10.1562V23ZM8.32031 9.75781C7.1875 9.75781 6.25 8.78125 6.25 7.60938C6.25 6.00781 7.96875 4.99219 9.375 5.8125C10.0391 6.16406 10.4297 6.86719 10.4297 7.60938C10.4297 8.78125 9.49219 9.75781 8.32031 9.75781ZM23.7109 23H20.1172V17.3359C20.1172 15.9688 20.0781 14.25 18.2031 14.25C16.3281 14.25 16.0547 15.6953 16.0547 17.2188V23H12.4219V11.3203H15.8984V12.9219H15.9375C16.4453 12.0234 17.6172 11.0469 19.375 11.0469C23.0469 11.0469 23.75 13.4688 23.75 16.5938V23H23.7109Z" fill="white"/>
</svg>
