<svg width="30" height="30" viewBox="0 0 30 30" fill="none" xmlns="http://www.w3.org/2000/svg">
<path d="M24.6875 15.5C24.6875 20.8516 20.3516 25.1875 15 25.1875C13.9844 25.1875 13.0078 25.0703 12.1094 24.7578C12.5 24.1328 13.0859 23.0781 13.3203 22.2188C13.4375 21.7891 13.9062 19.9141 13.9062 19.9141C14.2188 20.5391 15.1562 21.0469 16.1328 21.0469C19.0625 21.0469 21.1719 18.3516 21.1719 15.0312C21.1719 11.8281 18.5547 9.40625 15.1953 9.40625C11.0156 9.40625 8.78906 12.2188 8.78906 15.2656C8.78906 16.7109 9.53125 18.4688 10.7422 19.0547C10.9375 19.1328 11.0547 19.0938 11.0938 18.8984C11.0938 18.7812 11.2891 18.1172 11.3672 17.8047C11.3672 17.7266 11.3672 17.6094 11.2891 17.5312C10.8984 17.0625 10.5859 16.1641 10.5859 15.3047C10.5859 13.1953 12.1875 11.125 14.9609 11.125C17.3047 11.125 18.9844 12.7266 18.9844 15.0703C18.9844 17.6875 17.6562 19.4844 15.9375 19.4844C15 19.4844 14.2969 18.7031 14.4922 17.7656C14.7656 16.5938 15.3125 15.3438 15.3125 14.5234C15.3125 13.7812 14.9219 13.1562 14.1016 13.1562C13.125 13.1562 12.3438 14.1719 12.3438 15.5C12.3438 16.3594 12.6172 16.9453 12.6172 16.9453C12.6172 16.9453 11.6797 21.0078 11.4844 21.75C11.2891 22.6094 11.3672 23.7812 11.4453 24.5234C7.85156 23.1172 5.3125 19.6406 5.3125 15.5C5.3125 10.1484 9.64844 5.8125 15 5.8125C20.3516 5.8125 24.6875 10.1484 24.6875 15.5Z" fill="white"/>
</svg>
