<svg width="25" height="25" viewBox="0 0 25 25" fill="none" xmlns="http://www.w3.org/2000/svg">
<path d="M23.4375 1.5625H12.5V23.4375H23.4375V1.5625ZM12.5 0H23.4375H25V1.5625V23.4375V25H23.4375H12.5H10.9375V23.4375V1.5625V0H12.5ZM9.375 6.25V7.8125H8.59375H1.5625V23.4375H8.59375H9.375V25H8.59375H0.78125H0V24.2188V7.03125V6.25H0.78125H8.59375H9.375ZM3.90625 15.625H7.03125H7.8125V16.4062V19.5312V20.3125H7.03125H3.90625H3.125V19.5312V16.4062V15.625H3.90625ZM4.6875 18.75H6.25V17.1875H4.6875V18.75ZM15.625 20.3125V19.5312V16.4062V15.625H16.4062H19.5312H20.3125V16.4062V19.5312V20.3125H19.5312H16.4062H15.625ZM17.1875 18.75H18.75V17.1875H17.1875V18.75ZM3.90625 9.375H7.03125H7.8125V10.1562V13.2812V14.0625H7.03125H3.90625H3.125V13.2812V10.1562V9.375H3.90625ZM4.6875 12.5H6.25V10.9375H4.6875V12.5ZM15.625 3.125H16.4062H19.5312H20.3125V3.90625V7.03125V7.8125H19.5312H16.4062H15.625V7.03125V3.90625V3.125ZM17.1875 4.6875V6.25H18.75V4.6875H17.1875ZM16.4062 14.0625H15.625V13.2812V10.1562V9.375H16.4062H19.5312H20.3125V10.1562V13.2812V14.0625H19.5312H16.4062ZM17.1875 10.9375V12.5H18.75V10.9375H17.1875Z" fill="#F6C557"/>
</svg>
