<svg width="18" height="18" viewBox="0 0 18 18" fill="none" xmlns="http://www.w3.org/2000/svg">
<path d="M1.25 1.25V6.25H6.25V1.25H1.25ZM0 0H1.25H6.25H7.5V1.25V6.25V7.5H6.25H1.25H0V6.25V1.25V0ZM1.25 11.25V16.25H6.25V11.25H1.25ZM0 10H1.25H6.25H7.5V11.25V16.25V17.5H6.25H1.25H0V16.25V11.25V10ZM16.25 1.25H11.25V6.25H16.25V1.25ZM11.25 0H16.25H17.5V1.25V6.25V7.5H16.25H11.25H10V6.25V1.25V0H11.25ZM11.25 11.25V16.25H16.25V11.25H11.25ZM10 10H11.25H16.25H17.5V11.25V16.25V17.5H16.25H11.25H10V16.25V11.25V10Z" fill="white" fill-opacity="0.6"/>
</svg>
