<svg width="32" height="25" viewBox="0 0 32 25" fill="none" xmlns="http://www.w3.org/2000/svg">
<path d="M28.0762 10.1562H25.7812H25L27.002 12.5L29.6875 15.625V17.8223V17.9688H27.3438H26.5625L28.9062 20.3125L31.25 22.6562V25H28.9062H20.3125V22.6562H27.9297L24.9023 19.6289L23.4375 18.1641V15.625H26.5625L23.1934 11.7188L21.875 10.1562V7.8125H24.8047L20.2148 3.27148L15.332 7.66602L13.5254 6.15234L20.3125 0L28.125 7.8125V10.1562H28.0762ZM2.34375 13.623V22.6562H16.4062V13.623L9.375 7.76367L2.34375 13.623ZM0 12.5L9.375 4.6875L18.75 12.5V22.6562V25H16.4062H2.34375H0V22.6562V12.5ZM11.7188 13.2812V17.9688H7.03125V13.2812H11.7188Z" fill="#F6C557"/>
</svg>
