<svg width="32" height="22" viewBox="0 0 32 22" fill="none" xmlns="http://www.w3.org/2000/svg">
<path opacity="0.8" d="M20.3125 1.5625H1.5625V15.625H8.39844H8.98438H12.8906H13.4277H20.3125V1.5625ZM1.5625 17.1875H0V15.625V1.5625V0H1.5625H20.3125H21.875V1.5625V15.625V17.1875H20.3125H13.9648L14.9902 20.3125H18.75V21.875H15.5273H14.4531H7.42188H6.29883H3.125V20.3125H6.83594L7.86133 17.1875H1.5625ZM8.49609 20.3125H13.3301L12.3047 17.1875H9.52148L8.49609 20.3125ZM25 1.5625V4.6875H29.6875V1.5625H25ZM25 6.25V7.8125H29.6875V6.25H25ZM25 20.3125H29.6875V9.375H25V20.3125ZM23.4375 0H25H29.6875H31.25V1.5625V20.3125V21.875H29.6875H25H23.4375V20.3125V1.5625V0ZM27.3438 16.0156C26.6602 16.0156 26.1719 15.5273 26.1719 14.8438C26.1719 14.209 26.6602 13.6719 27.3438 13.6719C27.9785 13.6719 28.5156 14.209 28.5156 14.8438C28.5156 15.5273 27.9785 16.0156 27.3438 16.0156Z" fill="#F6C557"/>
</svg>
