<svg width="32" height="25" viewBox="0 0 32 25" fill="none" xmlns="http://www.w3.org/2000/svg">
<path opacity="0.8" d="M28.0762 5.22461C28.0762 5.0293 28.125 4.88281 28.125 4.6875C28.125 2.97852 26.709 1.5625 25 1.5625C23.2422 1.5625 21.875 2.97852 21.875 4.6875C21.875 4.88281 21.875 5.0293 21.875 5.22461L22.0215 6.15234L21.2891 6.68945C20.6543 7.12891 20.3125 7.8125 20.3125 8.59375V10.9375H29.6875V8.59375C29.6875 7.8125 29.2969 7.12891 28.7109 6.73828L27.9297 6.15234L28.0762 5.22461ZM18.75 8.59375C18.75 7.32422 19.3848 6.15234 20.3613 5.46875C20.3125 5.22461 20.3125 4.98047 20.3125 4.6875C20.3125 2.09961 22.4121 0 25 0C27.5879 0 29.6875 2.09961 29.6875 4.6875C29.6875 4.98047 29.6387 5.22461 29.5898 5.46875C30.5664 6.15234 31.25 7.32422 31.25 8.59375V10.9375V12.5H29.6875H25.7812V24.2188V25H24.2188V24.2188V12.5H20.3125H18.75V10.9375V8.59375ZM3.125 10.9375V14.0625H4.6875H14.0625H15.625V10.9375H3.125ZM3.125 15.625H1.5625V14.0625V10.9375V9.375H3.125H15.625H17.1875V10.9375V14.0625V15.625H15.625V17.9688H16.4062H17.9688H18.75V19.5312H17.9688H17.1875V24.2188V25H15.625V24.2188V19.5312H14.8438H3.90625H3.125V24.2188V25H1.5625V24.2188V19.5312H0.78125H0V17.9688H0.78125H2.34375H3.125V15.625ZM4.6875 15.625V17.9688H14.0625V15.625H4.6875Z" fill="#F6C557"/>
</svg>
