<svg width="25" height="25" viewBox="0 0 25 25" fill="none" xmlns="http://www.w3.org/2000/svg">
<path opacity="0.8" d="M25 0V1.5625H23.4375V23.4375H25V25H14.8438H14.0625H10.9375H10.1562H0V23.4375H1.5625V1.5625H0V0H25ZM13.2812 23.4375V20.3125H11.7188V23.4375H13.2812ZM14.8438 19.5312V23.4375H21.875V1.5625H3.125V23.4375H10.1562V19.5312V18.75H10.9375H14.0625H14.8438V19.5312ZM15.625 3.125H16.4062H19.5312H20.3125V3.90625V7.03125V7.8125H19.5312H16.4062H15.625V7.03125V3.90625V3.125ZM17.1875 4.6875V6.25H18.75V4.6875H17.1875ZM10.9375 3.125H14.0625H14.8438V3.90625V7.03125V7.8125H14.0625H10.9375H10.1562V7.03125V3.90625V3.125H10.9375ZM11.7188 6.25H13.2812V4.6875H11.7188V6.25ZM10.1562 9.375H10.9375H14.0625H14.8438V10.1562V13.2812V14.0625H14.0625H10.9375H10.1562V13.2812V10.1562V9.375ZM11.7188 10.9375V12.5H13.2812V10.9375H11.7188ZM16.4062 9.375H19.5312H20.3125V10.1562V13.2812V14.0625H19.5312H16.4062H15.625V13.2812V10.1562V9.375H16.4062ZM17.1875 12.5H18.75V10.9375H17.1875V12.5ZM4.6875 3.125H5.46875H8.59375H9.375V3.90625V7.03125V7.8125H8.59375H5.46875H4.6875V7.03125V3.90625V3.125ZM6.25 4.6875V6.25H7.8125V4.6875H6.25ZM5.46875 9.375H8.59375H9.375V10.1562V13.2812V14.0625H8.59375H5.46875H4.6875V13.2812V10.1562V9.375H5.46875ZM6.25 12.5H7.8125V10.9375H6.25V12.5ZM9.57031 18.5059L8.39844 17.4805C9.42383 16.3574 10.8398 15.625 12.5 15.625C14.1113 15.625 15.5762 16.3574 16.5527 17.4805L15.3809 18.5059C14.6973 17.7246 13.623 17.1875 12.5 17.1875C11.3281 17.1875 10.3027 17.7246 9.57031 18.5059Z" fill="#F6C557"/>
</svg>
