<svg width="32" height="22" viewBox="0 0 32 22" fill="none" xmlns="http://www.w3.org/2000/svg">
<path opacity="0.8" d="M8.83789 0.0976562L18.457 3.66211L22.5098 1.61133C23.4863 1.12305 24.5605 0.830078 25.6836 0.830078H28.6621C30.4199 0.830078 31.5918 2.68555 30.8594 4.24805C29.9805 6.20117 28.418 7.8125 26.5137 8.78906L12.8418 15.625L12.6465 15.6738H12.5H5.85938H5.51758L5.27344 15.4785L0.976562 11.1816L0.244141 10.4492L1.17188 9.96094L3.90625 8.39844L4.15039 8.25195L4.44336 8.30078L7.66602 9.0332L10.498 7.61719L3.85742 3.4668L2.63672 2.68555L3.95508 2.09961L8.25195 0.146484L8.54492 0L8.83789 0.0976562ZM5.9082 2.92969L12.5488 7.03125L13.7207 7.76367L12.4512 8.34961L8.1543 10.5469L7.91016 10.6445L7.61719 10.5957L4.39453 9.86328L2.83203 10.791L6.15234 14.1113H12.3047L25.8301 7.37305C27.4414 6.5918 28.7109 5.27344 29.4434 3.61328C29.7363 3.07617 29.2969 2.44141 28.6621 2.44141H25.6836C24.8047 2.44141 23.9746 2.63672 23.2422 2.97852L18.8477 5.17578L18.5547 5.32227L18.2129 5.22461L8.59375 1.70898L5.9082 2.92969ZM0.78125 20.3613H30.4688H31.25V21.9238H30.4688H0.78125H0V20.3613H0.78125Z" fill="#F6C557"/>
</svg>
