<svg width="28" height="25" viewBox="0 0 28 25" fill="none" xmlns="http://www.w3.org/2000/svg">
<path opacity="0.8" d="M14.3066 0.439453L27.5879 12.1582L26.5625 13.3301L24.7559 11.7188V24.0723V24.8535H23.9746H3.66211H2.88086V24.0723V11.7188L1.02539 13.3301L0 12.1582L13.2812 0.439453L13.8184 0L14.3066 0.439453ZM4.44336 23.291H23.1934V10.3516L13.8184 2.09961L4.44336 10.3516V23.291ZM12.2559 8.44727H15.3809H16.1621V9.22852V11.5723H18.5059H19.2871V12.3535V15.4785V16.2598H18.5059H16.1621V18.6035V19.3848H15.3809H12.2559H11.4746V18.6035V16.2598H9.13086H8.34961V15.4785V12.3535V11.5723H9.13086H11.4746V9.22852V8.44727H12.2559ZM13.0371 12.3535V13.1348H12.2559H9.91211V14.6973H12.2559H13.0371V15.4785V17.8223H14.5996V15.4785V14.6973H15.3809H17.7246V13.1348H15.3809H14.5996V12.3535V10.0098H13.0371V12.3535Z" fill="#F6C557"/>
</svg>
