<svg width="32" height="25" viewBox="0 0 32 25" fill="none" xmlns="http://www.w3.org/2000/svg">
<path opacity="0.8" d="M1.5625 4.6875H7.8125L15.625 0L23.4375 4.6875H29.6875H31.25V6.25V23.4375V25H29.6875H18.75H17.1875H14.0625H12.5H1.5625H0V23.4375V6.25V4.6875H1.5625ZM17.1875 18.75C17.1875 17.9199 16.4551 17.1875 15.625 17.1875C14.7461 17.1875 14.0625 17.9199 14.0625 18.75V23.4375H17.1875V18.75ZM18.75 23.4375H29.6875V6.25H23.4375C23.1445 6.25 22.8516 6.20117 22.6074 6.05469L15.625 1.85547L8.59375 6.05469C8.34961 6.20117 8.05664 6.25 7.8125 6.25H1.5625V23.4375H12.5V18.75C12.5 17.041 13.8672 15.625 15.625 15.625C17.334 15.625 18.75 17.041 18.75 18.75V23.4375ZM4.6875 7.8125H5.46875H8.59375H9.375V8.59375V13.2812V14.0625H8.59375H5.46875H4.6875V13.2812V8.59375V7.8125ZM6.25 9.375V12.5H7.8125V9.375H6.25ZM22.6562 7.8125H25.7812H26.5625V8.59375V13.2812V14.0625H25.7812H22.6562H21.875V13.2812V8.59375V7.8125H22.6562ZM23.4375 12.5H25V9.375H23.4375V12.5ZM4.6875 15.625H5.46875H8.59375H9.375V16.4062V21.0938V21.875H8.59375H5.46875H4.6875V21.0938V16.4062V15.625ZM6.25 17.1875V20.3125H7.8125V17.1875H6.25ZM22.6562 15.625H25.7812H26.5625V16.4062V21.0938V21.875H25.7812H22.6562H21.875V21.0938V16.4062V15.625H22.6562ZM25 20.3125V17.1875H23.4375V20.3125H25ZM15.625 12.5C16.6992 12.5 17.7246 11.9141 18.3105 10.9375C18.8477 10.0098 18.8477 8.78906 18.3105 7.8125C17.7246 6.88477 16.6992 6.25 15.625 6.25C14.502 6.25 13.4766 6.88477 12.8906 7.8125C12.3535 8.78906 12.3535 10.0098 12.8906 10.9375C13.4766 11.9141 14.502 12.5 15.625 12.5ZM15.625 4.6875C17.2852 4.6875 18.7988 5.61523 19.6777 7.03125C20.5078 8.49609 20.5078 10.3027 19.6777 11.7188C18.7988 13.1836 17.2852 14.0625 15.625 14.0625C13.916 14.0625 12.4023 13.1836 11.5234 11.7188C10.6934 10.3027 10.6934 8.49609 11.5234 7.03125C12.4023 5.61523 13.916 4.6875 15.625 4.6875ZM16.4062 7.8125V8.59375H16.7969H17.5781V10.1562H16.7969H15.625H14.8438V9.375V7.8125V7.03125H16.4062V7.8125Z" fill="#F6C557"/>
</svg>
