<svg width="29" height="25" viewBox="0 0 29 25" fill="none" xmlns="http://www.w3.org/2000/svg">
<path opacity="0.8" d="M7.8125 4.6875V7.8125H14.0625V4.6875C14.0625 2.97852 12.6465 1.5625 10.9375 1.5625C9.17969 1.5625 7.8125 2.97852 7.8125 4.6875ZM6.25 7.8125V4.6875C6.25 2.09961 8.34961 0 10.9375 0C13.5254 0 15.625 2.09961 15.625 4.6875V7.8125H20.3125H21.875V9.375V10.9375H20.3125V9.375H1.5625V21.875H7.8125V23.4375H1.5625H0V21.875V9.375V7.8125H1.5625H6.25ZM10.9375 14.0625V23.4375H26.5625V14.0625H10.9375ZM9.375 12.5H10.9375H26.5625H28.125V14.0625V23.4375V25H26.5625H10.9375H9.375V23.4375V14.0625V12.5ZM15.625 16.4062V17.1875C15.625 18.9453 16.9922 20.3125 18.75 20.3125C20.459 20.3125 21.875 18.9453 21.875 17.1875V16.4062V15.625H23.4375V16.4062V17.1875C23.4375 19.7754 21.3379 21.875 18.75 21.875C16.1621 21.875 14.0625 19.7754 14.0625 17.1875V16.4062V15.625H15.625V16.4062Z" fill="#F6C557"/>
</svg>
