<svg width="25" height="25" viewBox="0 0 25 25" fill="none" xmlns="http://www.w3.org/2000/svg">
<path opacity="0.8" d="M12.5 1.5625C6.44531 1.5625 1.5625 6.49414 1.5625 12.5V24.2188V25H0V24.2188V12.5C0 5.61523 5.56641 0 12.5 0C19.3848 0 25 5.61523 25 12.5V24.2188V25H23.4375V24.2188V12.5C23.4375 6.49414 18.5059 1.5625 12.5 1.5625ZM7.03125 7.8125V12.5H17.9688V7.8125H7.03125ZM7.03125 14.0625V20.3125H9.42383H9.76562H15.2344H15.5273H17.9688V14.0625H7.03125ZM17.0898 21.875L19.6777 24.4629L20.2148 25H18.0176L14.8926 21.875H10.0586L6.93359 25H4.73633L5.27344 24.4629L7.86133 21.875H7.03125H5.46875V20.3125V7.8125V6.25H7.03125H17.9688H19.5312V7.8125V20.3125V21.875H17.9688H17.0898ZM8.59375 17.5781C8.59375 16.9434 9.08203 16.4062 9.76562 16.4062C10.4004 16.4062 10.9375 16.9434 10.9375 17.5781C10.9375 18.2617 10.4004 18.75 9.76562 18.75C9.08203 18.75 8.59375 18.2617 8.59375 17.5781ZM15.2344 16.4062C15.8691 16.4062 16.4062 16.9434 16.4062 17.5781C16.4062 18.2617 15.8691 18.75 15.2344 18.75C14.5508 18.75 14.0625 18.2617 14.0625 17.5781C14.0625 16.9434 14.5508 16.4062 15.2344 16.4062Z" fill="#F6C557"/>
</svg>
