<svg width="15" height="20" viewBox="0 0 15 20" fill="none" xmlns="http://www.w3.org/2000/svg">
<path d="M5.3125 0V0.9375V1.25H6.25H6.875V2.5H6.25H5.3125H3.4375H2.5H1.875V1.25H2.5H3.4375V0.9375V0H5.3125ZM11.5625 0V0.9375V1.25H12.5H13.125V2.5H12.5H11.5625H9.6875H8.75H8.125V1.25H8.75H9.6875V0.9375V0H11.5625ZM2.5 3.75H6.25H6.875V5H6.25H2.5H1.875V3.75H2.5ZM8.75 3.75H12.5H13.125V5H12.5H8.75H8.125V3.75H8.75ZM0.9375 6.25H2.1875H12.8125H14.0625H15V8.125H14.0625H13.75V18.125H14.0625H15V20H14.0625H12.8125H2.1875H0.9375H0V18.125H0.9375H1.25V8.125H0.9375H0V6.25H0.9375ZM3.125 18.125H11.875V8.125H3.125V18.125ZM6.875 13.75H4.375V12.8125L8.125 9.375H9.0625L8.125 12.5H10.625V13.4375L6.875 16.875H5.9375L6.875 13.75Z" fill="#F6C557"/>
</svg>
