<svg width="25" height="20" viewBox="0 0 25 20" fill="none" xmlns="http://www.w3.org/2000/svg">
<path d="M21.6406 5.19531L21.8359 4.0625C21.8359 3.98438 21.875 3.86719 21.875 3.75C21.875 2.73438 21.0156 1.875 20 1.875C18.9453 1.875 18.125 2.73438 18.125 3.75C18.125 3.86719 18.125 3.98438 18.125 4.0625L18.3203 5.19531L17.3828 5.85938C17.0703 6.09375 16.875 6.48438 16.875 6.875V8.125H23.125V6.875C23.125 6.48438 22.8906 6.09375 22.5781 5.85938L21.6406 5.19531ZM16.2891 4.375C16.25 4.17969 16.25 3.98438 16.25 3.75C16.25 1.67969 17.9297 0 20 0C22.0703 0 23.75 1.67969 23.75 3.75C23.75 3.98438 23.7109 4.17969 23.6719 4.375C24.4531 4.92188 25 5.85938 25 6.875V8.125V10H23.125H20.9375V19.0625V20H19.0625V19.0625V10H16.875H15V8.125V6.875C15 5.85938 15.5078 4.92188 16.2891 4.375ZM3.125 9.375V10.625H11.875V9.375H3.125ZM1.25 7.5H3.125H11.875H13.75V9.375V10.625V12.5H12.8125V13.75H13.75H14.0625H15V15.625H14.0625H13.75V19.0625V20H11.875V19.0625V15.625H3.125V19.0625V20H1.25V19.0625V15.625H0.9375H0V13.75H0.9375H1.25H2.1875V12.5H1.25V10.625V9.375V7.5ZM4.0625 12.5V13.75H10.9375V12.5H4.0625Z" fill="#F6C557"/>
</svg>
