<svg width="23" height="20" viewBox="0 0 23 20" fill="none" xmlns="http://www.w3.org/2000/svg">
<path d="M19.375 7.5H20.625H22.5V9.375V18.125V20H20.625H17.5H12.5H11.25H10H5H1.875H0V18.125V5.625V3.75H1.875H3.125H5V1.875V0H6.875H15.625H17.5V1.875V5.625V7.5H19.375ZM12.5 15V18.125H17.5H20.625V9.375H17.5H15.625V7.5V1.875H6.875V3.75V5.625H5H1.875V18.125H5H10V15H12.5ZM11.875 13.125V10.625H14.375V13.125H11.875ZM19.375 16.875H16.875V14.375H19.375V16.875ZM3.125 13.125V10.625H5.625V13.125H3.125ZM5.625 16.875H3.125V14.375H5.625V16.875ZM8.125 13.125V10.625H10.625V13.125H8.125ZM14.375 3.125V5.625H11.875V3.125H14.375ZM8.125 3.125H10.625V5.625H8.125V3.125ZM14.375 9.375H11.875V6.875H14.375V9.375ZM16.875 13.125V10.625H19.375V13.125H16.875ZM5.625 9.375H3.125V6.875H5.625V9.375ZM8.125 9.375V6.875H10.625V9.375H8.125Z" fill="#F6C557"/>
</svg>
