<svg width="23" height="20" viewBox="0 0 23 20" fill="none" xmlns="http://www.w3.org/2000/svg">
<path d="M1.875 1.875V18.125H11.0938C11.5625 18.8672 12.1875 19.5312 12.8906 20H1.875H0V18.125V1.875V0H1.875H13.125H15V1.875V7.77344C14.2969 7.96875 13.6719 8.24219 13.125 8.63281V1.875H1.875ZM11.25 8.75V10.4297C11.1719 10.5078 11.1328 10.5859 11.0938 10.625H10.3125H4.6875H3.75V8.75H4.6875H10.3125H11.25ZM4.6875 5H10.3125H11.25V6.875H10.3125H4.6875H3.75V5H4.6875ZM4.6875 12.5H6.5625H7.5V14.375H6.5625H4.6875H3.75V12.5H4.6875ZM16.875 20C14.8438 20 13.0078 18.9453 11.9922 17.1875C10.9766 15.4688 10.9766 13.3203 11.9922 11.5625C13.0078 9.84375 14.8438 8.75 16.875 8.75C18.8672 8.75 20.7031 9.84375 21.7188 11.5625C22.7344 13.3203 22.7344 15.4688 21.7188 17.1875C20.7031 18.9453 18.8672 20 16.875 20ZM17.4609 11.25H16.2109V12.5H17.4609V11.25ZM17.5 13.75H16.875H16.25H15.625V15H16.25V16.875H15.625V18.125H16.25H17.5H18.125V16.875H17.5V14.375V13.75Z" fill="#F6C557"/>
</svg>
