<svg width="15" height="15" viewBox="0 0 15 15" fill="none" xmlns="http://www.w3.org/2000/svg">
<path d="M10.7812 6.09375C10.7812 4.42383 9.87305 2.90039 8.4375 2.05078C6.97266 1.20117 5.18555 1.20117 3.75 2.05078C2.28516 2.90039 1.40625 4.42383 1.40625 6.09375C1.40625 7.79297 2.28516 9.31641 3.75 10.166C5.18555 11.0156 6.97266 11.0156 8.4375 10.166C9.87305 9.31641 10.7812 7.79297 10.7812 6.09375ZM9.87305 10.8984C8.81836 11.7188 7.5 12.1875 6.09375 12.1875C2.72461 12.1875 0 9.46289 0 6.09375C0 2.75391 2.72461 0 6.09375 0C9.43359 0 12.1875 2.75391 12.1875 6.09375C12.1875 7.5293 11.6895 8.84766 10.8691 9.90234L14.502 13.5352L15 14.0332L14.0039 15L13.5059 14.502L9.87305 10.8691V10.8984Z" fill="white" fill-opacity="0.5"/>
</svg>
