<svg width="20" height="20" viewBox="0 0 20 20" fill="none" xmlns="http://www.w3.org/2000/svg">
<path d="M7.53906 0.9375L10 2.26562L12.4219 0.9375L14.1406 0L14.6875 1.83594L15.4688 4.53125L18.1641 5.3125L20 5.85938L19.0625 7.57812L17.7344 10L19.0625 12.4609L20 14.1406L18.1641 14.7266L15.4688 15.5078L14.6875 18.1641L14.1406 20L12.4219 19.1016L10 17.7734L7.53906 19.1016L5.85938 20L5.27344 18.2031L4.49219 15.5078L1.79688 14.7266L0 14.1406L0.898438 12.4609L2.22656 10L0.898438 7.57812L0 5.85938L1.79688 5.3125L4.49219 4.53125L5.27344 1.83594L5.85938 0L7.53906 0.9375ZM10.8594 3.90625L10 4.375L9.10156 3.90625L6.99219 2.77344L6.28906 5.07812L5.97656 6.01562L5.03906 6.32812L2.73438 6.99219L3.86719 9.14062L4.33594 10L3.86719 10.8984L2.73438 13.0078L5.03906 13.7109L6.01562 14.0234L6.28906 14.9609L6.99219 17.2656L9.10156 16.1328L10 15.6641L10.8594 16.1328L13.0078 17.2656L13.6719 14.9609L13.9844 13.9844L14.9219 13.7109L17.2266 13.0078L16.0938 10.8984L15.625 10L16.0938 9.14062L17.2266 6.99219L14.9219 6.32812L13.9844 6.01562L13.6719 5.07812L13.0078 2.77344L10.8594 3.90625ZM10 5.625C11.5625 5.625 12.9688 6.48438 13.75 7.8125C14.5703 9.17969 14.5703 10.8594 13.75 12.1875C12.9688 13.5547 11.5625 14.375 10 14.375C8.39844 14.375 6.99219 13.5547 6.21094 12.1875C5.39062 10.8594 5.39062 9.17969 6.21094 7.8125C6.99219 6.48438 8.39844 5.625 10 5.625ZM12.5 10C12.5 9.14062 11.9922 8.32031 11.25 7.85156C10.4688 7.42188 9.49219 7.42188 8.75 7.85156C7.96875 8.32031 7.5 9.14062 7.5 10C7.5 10.8984 7.96875 11.7188 8.75 12.1875C9.49219 12.6172 10.4688 12.6172 11.25 12.1875C11.9922 11.7188 12.5 10.8984 12.5 10Z" fill="#F6C557"/>
</svg>
