<svg width="20" height="20" viewBox="0 0 20 20" fill="none" xmlns="http://www.w3.org/2000/svg">
<path d="M10.625 14.4531C8.51562 13.2422 6.75781 11.4844 5.54688 9.375L4.84375 8.125L5.85938 7.10938L7.14844 5.82031L5.70312 2.14844L1.875 2.8125C2.03125 11.2109 8.78906 17.9688 17.1484 18.125L17.8516 14.2969L14.1797 12.8516L12.8906 14.1406L11.875 15.1562L10.625 14.4531ZM20 13.125L18.75 20H17.5C7.8125 20 0 12.1875 0 2.5V1.25L6.875 0L9.375 6.25L7.1875 8.4375C8.24219 10.2734 9.72656 11.7578 11.5625 12.8125L13.75 10.625L20 13.125ZM10 1.875V0C15.5078 0 20 4.49219 20 10H18.125C18.125 5.54688 14.4531 1.875 10 1.875ZM11.25 10C10.5469 10 10 9.45312 10 8.75C10 8.08594 10.5469 7.5 11.25 7.5C11.9141 7.5 12.5 8.08594 12.5 8.75C12.5 9.45312 11.9141 10 11.25 10ZM14.375 10C14.375 7.61719 12.3828 5.625 10 5.625V3.75C13.4375 3.75 16.25 6.5625 16.25 10H14.375Z" fill="#F6C557"/>
</svg>
