<svg width="19" height="20" viewBox="0 0 19 20" fill="none" xmlns="http://www.w3.org/2000/svg">
<path d="M1.99219 4.92188C1.95312 6.64062 2.26562 9.10156 3.28125 11.5234C4.41406 14.0625 6.28906 16.5234 9.49219 17.9688C12.6562 16.5234 14.5312 14.0625 15.6641 11.5234C16.7188 9.10156 17.0312 6.64062 16.9922 4.92188L9.49219 2.03125L1.99219 4.92188ZM18.8281 4.41406C18.9453 6.36719 18.6328 9.375 17.3828 12.2656C16.0938 15.2344 13.8281 18.125 9.96094 19.8047L9.49219 20L8.98438 19.8047C5.11719 18.125 2.85156 15.2344 1.5625 12.2656C0.3125 9.375 0 6.36719 0.117188 4.41406L0.15625 3.63281L0.898438 3.32031L9.02344 0.195312L9.49219 0L9.92188 0.195312L18.0469 3.32031L18.7891 3.63281L18.8281 4.41406ZM13.9062 8.16406L8.90625 13.1641L8.24219 13.8281L7.57812 13.1641L5.07812 10.6641L4.41406 10L5.74219 8.71094L6.40625 9.375L8.24219 11.2109L12.5781 6.875L13.2422 6.21094L14.5703 7.5L13.9062 8.16406Z" fill="#F6C557"/>
</svg>
