<svg width="21" height="22" viewBox="0 0 21 22" fill="none" xmlns="http://www.w3.org/2000/svg">
<path d="M9.375 19.5703L8.35938 18.5938L7.03125 17.2656L5.78125 18.6328L5 19.4531L3.75 20.8203L2.42188 19.4922L1.32812 18.3984L0 17.0703L1.36719 15.8203L2.1875 15.0391L3.55469 13.7891L2.22656 12.4609L1.25 11.4453V7.22656L5.03906 3.39844C8.47656 0 13.9844 0 17.4219 3.39844C20.0391 6.01562 20.6641 9.88281 19.2578 13.0859C18.75 12.7344 18.1641 12.4219 17.5781 12.2656C18.6328 9.76562 18.125 6.75781 16.0938 4.72656C13.3984 2.03125 9.0625 2.03125 6.36719 4.72656L4.53125 6.5625L12.1484 14.1797C11.7578 14.7266 11.4844 15.3516 11.3281 16.0156L3.20312 7.89062L3.125 8.00781V10.7031L4.88281 12.4609L6.25 13.8281L4.80469 15.1562L2.69531 17.1484L3.67188 18.125L5.66406 16.0156L6.99219 14.5703L8.35938 15.9375L10.1172 17.6953H11.2891C11.3672 18.3984 11.5625 19.0234 11.9141 19.5703H9.375ZM18.125 17.0703C18.125 16.4062 17.7344 15.8203 17.1875 15.4688C16.6016 15.1172 15.8594 15.1172 15.3125 15.4688C14.7266 15.8203 14.375 16.4062 14.375 17.0703C14.375 17.7734 14.7266 18.3594 15.3125 18.7109C15.8594 19.0625 16.6016 19.0625 17.1875 18.7109C17.7344 18.3594 18.125 17.7734 18.125 17.0703ZM12.5 17.0703C12.5 15.7422 13.2031 14.5312 14.375 13.8281C15.5078 13.1641 16.9531 13.1641 18.125 13.8281C19.2578 14.5312 20 15.7422 20 17.0703C20 18.4375 19.2578 19.6484 18.125 20.3516C16.9531 21.0156 15.5078 21.0156 14.375 20.3516C13.2031 19.6484 12.5 18.4375 12.5 17.0703Z" fill="#F6C557"/>
</svg>
