<svg width="20" height="21" viewBox="0 0 20 21" fill="none" xmlns="http://www.w3.org/2000/svg">
<path d="M14.7656 16.9922H14.5703L7.46094 16.0547L7.26562 18.125C8.125 18.3984 9.02344 18.5547 10 18.5547C11.7578 18.5547 13.4375 18.0078 14.7656 16.9922ZM17.2656 14.0625C17.7344 13.125 18.0078 12.0703 18.0859 10.9766L16.0156 11.9141L15.7812 12.0312L15.5078 11.9922L10.4297 11.4453L8.32031 14.2969L14.5703 15.0781L17.2656 14.0625ZM17.9688 8.98438C17.5 6.28906 15.6641 4.0625 13.2812 3.00781L13.3594 3.20312L16.0938 9.80469L17.9688 8.98438ZM5.46875 17.1875L5.70312 14.9219V14.6484L5.85938 14.4531L8.90625 10.3125L7.5 7.10938L3.67188 12.1094L3.20312 14.9219C3.78906 15.8203 4.57031 16.6016 5.46875 17.1875ZM1.91406 11.3281L2.03125 11.1328L6.36719 5.46875L4.72656 4.25781C2.96875 5.74219 1.875 7.96875 1.875 10.4297C1.875 10.7422 1.875 11.0156 1.91406 11.3281ZM6.36719 3.16406L8.24219 4.49219L8.47656 4.64844L8.55469 4.88281L10.625 9.57031L14.1406 9.96094L11.7188 4.14062L9.49219 2.34375C8.39844 2.42188 7.34375 2.69531 6.36719 3.16406ZM0 10.4297C0 6.875 1.875 3.59375 5 1.79688C8.08594 0 11.875 0 15 1.79688C18.0859 3.59375 20 6.875 20 10.4297C20 14.0234 18.0859 17.3047 15 19.1016C11.875 20.8984 8.08594 20.8984 5 19.1016C1.875 17.3047 0 14.0234 0 10.4297Z" fill="#F6C557"/>
</svg>
