<svg width="20" height="20" viewBox="0 0 20 20" fill="none" xmlns="http://www.w3.org/2000/svg">
<path d="M20 6.25L19.1016 7.14844L7.10938 19.1406L6.25 20L5.35156 19.1406L0.859375 14.6484L0 13.75L0.859375 12.8906L12.8516 0.898438L13.75 0L14.6094 0.898438L19.1016 5.39062L20 6.25ZM13.75 1.79688L11.9141 3.59375L13.5547 5.19531L13.9844 5.625L13.125 6.52344L12.6562 6.09375L11.0547 4.45312L9.41406 6.09375L11.0547 7.69531L11.4844 8.125L10.625 9.02344L10.1562 8.59375L8.55469 6.95312L6.91406 8.59375L8.55469 10.1953L8.98438 10.625L8.125 11.5234L7.65625 11.0938L6.05469 9.45312L4.41406 11.0938L6.05469 12.6953L6.48438 13.125L5.625 14.0234L5.15625 13.5938L3.55469 11.9531L1.75781 13.75L6.25 18.2422L18.2031 6.25L13.75 1.79688Z" fill="#F6C557"/>
</svg>
