<svg width="23" height="13" viewBox="0 0 23 13" fill="none" xmlns="http://www.w3.org/2000/svg">
<path d="M1.25 2.57812C1.25 1.71875 1.71875 0.898438 2.5 0.429688C3.24219 0 4.21875 0 5 0.429688C5.74219 0.898438 6.25 1.71875 6.25 2.57812C6.25 3.47656 5.74219 4.29688 5 4.76562C4.21875 5.19531 3.24219 5.19531 2.5 4.76562C1.71875 4.29688 1.25 3.47656 1.25 2.57812ZM3.75 11.2891H3.71094C3.55469 11.4062 3.32031 11.5625 3.08594 11.6797C2.30469 12.1094 1.21094 12.5781 0 12.5781V10.7031C0.742188 10.7031 1.52344 10.4297 2.14844 10.0781C2.73438 9.72656 3.20312 9.29688 3.71094 8.86719L3.75 8.82812V8.86719C4.25781 9.29688 4.72656 9.72656 5.3125 10.0781C5.9375 10.4297 6.71875 10.7031 7.5 10.7031C8.24219 10.7031 9.02344 10.4297 9.64844 10.0781C10.2344 9.72656 10.7031 9.29688 11.2109 8.86719L11.25 8.82812V8.86719C11.7578 9.29688 12.2266 9.72656 12.8125 10.0781C13.4375 10.4297 14.2188 10.7031 15 10.7031C15.7422 10.7031 16.5234 10.4297 17.1484 10.0781C17.7344 9.72656 18.2031 9.29688 18.7109 8.86719L18.75 8.82812V8.86719C19.2578 9.29688 19.7266 9.72656 20.3125 10.0781C20.9375 10.4297 21.7188 10.7031 22.5 10.7031V12.5781C21.25 12.5781 20.1562 12.1094 19.4141 11.6797C19.1406 11.5625 18.9062 11.4062 18.75 11.2891C18.5547 11.4062 18.3203 11.5625 18.0859 11.6797C17.3047 12.1094 16.2109 12.5781 15 12.5781C13.75 12.5781 12.6562 12.1094 11.875 11.6797C11.6406 11.5625 11.4062 11.4062 11.25 11.2891C11.0547 11.4062 10.8203 11.5625 10.5859 11.6797C9.80469 12.1094 8.71094 12.5781 7.5 12.5781C6.25 12.5781 5.15625 12.1094 4.375 11.6797C4.14062 11.5625 3.90625 11.4062 3.75 11.2891ZM10.5078 4.33594L8.125 6.71875V8.71094C7.89062 8.78906 7.69531 8.78906 7.5 8.78906C7.07031 8.78906 6.64062 8.71094 6.25 8.55469V6.32812V5.9375L6.52344 5.66406L11.8359 0.351562L12.1094 0.078125H12.5H17.8125H18.75V1.95312H17.8125H12.8516L11.8359 3.00781L17.5 7.85156C17.1875 8.08594 16.9141 8.24219 16.5625 8.39844C16.2891 8.55469 15.9766 8.63281 15.6641 8.71094L10.5078 4.33594Z" fill="#F6C557"/>
</svg>
