<svg width="25" height="18" viewBox="0 0 25 18" fill="none" xmlns="http://www.w3.org/2000/svg">
<path d="M4.33594 0H5H15H15.4297L15.7031 0.351562L20.4297 6.25H23.125H25V8.125V12.5V14.375H23.125H22.4219C22.1484 16.1719 20.5859 17.5 18.75 17.5C16.875 17.5 15.3125 16.1719 15.0391 14.375H9.92188C9.64844 16.1719 8.08594 17.5 6.21094 17.5C4.375 17.5 2.8125 16.1719 2.53906 14.375H1.875H0V12.5V8.125V6.25H1.83594L4.10156 0.625L4.33594 0ZM15.1953 12.5C15.7031 11.0547 17.1094 10 18.75 10C20.3516 10 21.7578 11.0547 22.2656 12.5H23.125V8.125H1.875V12.5H2.69531C3.20312 11.0547 4.60938 10 6.25 10C7.85156 10 9.25781 11.0547 9.76562 12.5H15.1953ZM16.9531 14.375C17.1875 15.0391 17.7344 15.5078 18.3984 15.625C19.0625 15.7812 19.7266 15.5078 20.1562 15C20.625 14.4922 20.7422 13.7891 20.5078 13.125C20.2734 12.5 19.7266 12.0312 19.0625 11.9141C18.3984 11.7578 17.7344 12.0312 17.3047 12.5391C16.875 13.0469 16.7188 13.75 16.9531 14.375ZM8.125 13.75C8.125 13.0859 7.73438 12.5 7.1875 12.1484C6.60156 11.7969 5.85938 11.7969 5.3125 12.1484C4.72656 12.5 4.375 13.0859 4.375 13.75C4.375 14.4531 4.72656 15.0391 5.3125 15.3906C5.85938 15.7422 6.60156 15.7422 7.1875 15.3906C7.73438 15.0391 8.125 14.4531 8.125 13.75ZM3.86719 6.25H8.75V5.625V2.5V1.875H5.625L3.86719 6.25ZM10.625 6.25H18.0469L14.5312 1.875H10.625V2.5V5.625V6.25Z" fill="#F6C557"/>
</svg>
