<svg width="20" height="20" viewBox="0 0 20 20" fill="none" xmlns="http://www.w3.org/2000/svg">
<path d="M1.25 1.25V18.75H18.75V18.6719L16.7188 16.6406L16.0547 17.3438L15.625 17.7734L14.7266 16.875L15.1562 16.4453L15.8594 15.7812L13.5938 13.5156L12.9297 14.2188L12.5 14.6484L11.6016 13.75L12.0312 13.3203L12.7344 12.6562L10.4688 10.3906L9.80469 11.0938L9.375 11.5234L8.47656 10.625L8.90625 10.1953L9.60938 9.53125L7.34375 7.26562L6.67969 7.96875L6.25 8.39844L5.35156 7.5L5.78125 7.07031L6.48438 6.40625L4.21875 4.14062L3.55469 4.84375L3.125 5.27344L2.22656 4.375L2.65625 3.94531L3.35938 3.28125L1.32812 1.25H1.25ZM1.875 0L20 18.125V18.75V20H18.75H1.25H0V18.75V1.25V0H1.25H1.875ZM4.375 8.51562L5.42969 9.57031L10.4297 14.5703L11.4844 15.625H10H5H4.375V15V10V8.51562ZM5.625 11.5234V14.4141H8.47656L5.625 11.5234Z" fill="#F6C557"/>
</svg>
